
<?xml version="1.0" encoding="UTF-8"?>
<svg xmlns="http://www.w3.org/2000/svg" xmlns:xlink="http://www.w3.org/1999/xlink" width="32px" height="32px" viewBox="0 0 32 32" version="1.1">
<g id="surface1">
<path style=" stroke:none;fill-rule:nonzero;fill:rgb(29.803922%,68.627451%,31.372549%);fill-opacity:1;" d="M 6.5625 2.78125 C 6.554688 2.8125 6.511719 3.175781 6.460938 3.585938 C 6.414062 4 6.359375 4.390625 6.347656 4.460938 C 6.335938 4.527344 6.234375 5.332031 6.125 6.25 C 5.488281 11.542969 4.933594 16.105469 3.964844 24.03125 C 3.835938 25.089844 3.738281 25.964844 3.746094 25.976562 C 3.769531 25.996094 4.058594 26.035156 8.535156 26.582031 C 10.734375 26.851562 13.085938 27.136719 13.761719 27.21875 C 14.433594 27.300781 17.054688 27.621094 19.582031 27.933594 C 22.113281 28.238281 24.699219 28.554688 25.328125 28.632812 C 26.140625 28.730469 26.480469 28.765625 26.496094 28.746094 C 26.503906 28.730469 26.523438 28.597656 26.542969 28.449219 C 26.574219 28.175781 26.804688 26.28125 27.707031 18.894531 C 28.222656 14.671875 29.199219 6.675781 29.289062 5.9375 C 29.316406 5.714844 29.328125 5.527344 29.320312 5.515625 C 29.308594 5.503906 28.019531 5.335938 26.453125 5.148438 C 20.300781 4.394531 14.765625 3.714844 13.886719 3.613281 C 13.378906 3.550781 12.792969 3.476562 12.585938 3.449219 C 12.011719 3.371094 6.660156 2.722656 6.605469 2.722656 C 6.589844 2.722656 6.570312 2.75 6.5625 2.78125 Z M 6.5625 2.78125 "/>
</g>
</svg>
